<svg viewBox="0 0 120 120" fill="none" xmlns="http://www.w3.org/2000/svg">
  <defs>
    <linearGradient id="bossa-g" x1="20" y1="40" x2="100" y2="80" gradientUnits="userSpaceOnUse">
      <stop offset="0%" stop-color="#e8f0f5"/>
      <stop offset="100%" stop-color="#7aa4bc"/>
    </linearGradient>
  </defs>
  <path d="M 28 82 C 28 82, 36 74, 44 66 C 52 58, 52 50, 60 44 C 68 38, 76 38, 84 32 C 90 27, 92 22, 92 22"
    stroke="url(#bossa-g)" stroke-width="1.4" stroke-linecap="round" fill="none" opacity="0.9"/>
  <path d="M 22 76 C 22 76, 30 68, 38 60 C 46 52, 46 44, 54 38 C 62 32, 70 32, 78 26 C 84 21, 86 16, 86 16"
    stroke="url(#bossa-g)" stroke-width="0.6" stroke-linecap="round" fill="none" opacity="0.35"/>
  <circle cx="60" cy="90" r="1.5" fill="#b8cedd" opacity="0.6"/>
  <line x1="30" y1="90" x2="90" y2="90" stroke="#b8cedd" stroke-width="0.5" stroke-linecap="round" opacity="0.2"/>
</svg>
